<?xml version="1.0" encoding="UTF-8"?>
<!DOCTYPE svg PUBLIC "-//W3C//DTD SVG 1.1//EN" "http://www.w3.org/Graphics/SVG/1.1/DTD/svg11.dtd">
<svg xmlns="http://www.w3.org/2000/svg" version="1.1" width="512px" height="512px" style="shape-rendering:geometricPrecision; text-rendering:geometricPrecision; image-rendering:optimizeQuality; fill-rule:evenodd; clip-rule:evenodd" xmlns:xlink="http://www.w3.org/1999/xlink">
<g><path style="opacity:0.968" fill="#fefffe" d="M 18.5,-0.5 C 23.5,-0.5 28.5,-0.5 33.5,-0.5C 36.9,1.03697 40.2333,2.8703 43.5,5C 114.014,75.6803 184.68,146.18 255.5,216.5C 325.653,146.847 395.653,77.0136 465.5,7C 469.093,3.71103 473.093,1.21103 477.5,-0.5C 482.5,-0.5 487.5,-0.5 492.5,-0.5C 501.437,2.77089 507.77,8.77089 511.5,17.5C 511.5,22.8333 511.5,28.1667 511.5,33.5C 509.963,36.9 508.13,40.2333 506,43.5C 435.32,114.014 364.82,184.68 294.5,255.5C 364.82,326.32 435.32,396.986 506,467.5C 508.13,470.767 509.963,474.1 511.5,477.5C 511.5,482.833 511.5,488.167 511.5,493.5C 507.745,502.255 501.412,508.255 492.5,511.5C 487.5,511.5 482.5,511.5 477.5,511.5C 473.093,509.789 469.093,507.289 465.5,504C 395.653,433.986 325.653,364.153 255.5,294.5C 184.68,364.82 114.014,435.32 43.5,506C 40.2333,508.13 36.9,509.963 33.5,511.5C 28.5,511.5 23.5,511.5 18.5,511.5C 9.16667,508.167 2.83333,501.833 -0.5,492.5C -0.5,487.833 -0.5,483.167 -0.5,478.5C 1.26151,473.866 3.76151,469.532 7,465.5C 77.0136,395.653 146.847,325.653 216.5,255.5C 146.847,185.347 77.0136,115.347 7,45.5C 3.77231,41.4743 1.27231,37.1409 -0.5,32.5C -0.5,27.8333 -0.5,23.1667 -0.5,18.5C 2.83333,9.16667 9.16667,2.83333 18.5,-0.5 Z"/></g>
</svg>
