<?xml version="1.0" encoding="UTF-8"?>
<!DOCTYPE svg PUBLIC "-//W3C//DTD SVG 1.1//EN" "http://www.w3.org/Graphics/SVG/1.1/DTD/svg11.dtd">
<svg xmlns="http://www.w3.org/2000/svg" version="1.1" width="512px" height="512px" style="shape-rendering:geometricPrecision; text-rendering:geometricPrecision; image-rendering:optimizeQuality; fill-rule:evenodd; clip-rule:evenodd" xmlns:xlink="http://www.w3.org/1999/xlink">
<g><path style="opacity:0.953" fill="#000000" d="M 145.5,-0.5 C 148.833,-0.5 152.167,-0.5 155.5,-0.5C 167.786,11.4513 180.119,23.4513 192.5,35.5C 211.001,28.4998 229.667,21.9998 248.5,16C 264.85,13.1595 280.85,14.4928 296.5,20C 323.063,32.2814 349.063,45.6147 374.5,60C 380.658,62.2897 386.992,63.7897 393.5,64.5C 392.937,58.6726 395.27,54.5059 400.5,52C 410.828,51.5002 421.161,51.3335 431.5,51.5C 431.191,46.7325 431.691,42.0658 433,37.5C 434.952,35.1064 437.452,33.6064 440.5,33C 461.167,32.3333 481.833,32.3333 502.5,33C 506.53,33.3395 509.53,35.1728 511.5,38.5C 511.5,83.8333 511.5,129.167 511.5,174.5C 510.028,176.134 508.362,177.634 506.5,179C 474.167,179.333 441.833,179.667 409.5,180C 392.202,205.316 368.202,217.983 337.5,218C 303.5,252 269.5,286 235.5,320C 231.5,322 227.5,322 223.5,320C 159,255.5 94.5,191 30,126.5C 28,122.833 28,119.167 30,115.5C 68.7014,76.9654 107.201,38.2987 145.5,-0.5 Z M 149.5,25.5 C 157.424,31.7549 164.758,38.7549 171.5,46.5C 157.354,54.6516 143.354,54.4849 129.5,46C 136.369,39.2982 143.036,32.4649 149.5,25.5 Z M 256.5,35.5 C 267.833,34.6461 278.833,36.1461 289.5,40C 314.589,51.3763 338.922,64.0429 362.5,78C 372.418,82.217 382.752,84.717 393.5,85.5C 393.667,112.502 393.5,139.502 393,166.5C 369.449,199.744 340.616,205.244 306.5,183C 302.132,178.967 298.132,174.634 294.5,170C 264.94,160.258 235.607,149.925 206.5,139C 196.455,131.868 193.955,122.701 199,111.5C 203.02,106.157 208.353,103.157 215,102.5C 247.777,112.092 280.444,122.092 313,132.5C 324.253,129.116 326.42,122.616 319.5,113C 294.845,105.002 270.178,97.002 245.5,89C 233.667,77.1667 221.833,65.3333 210,53.5C 209.544,52.2559 210.044,51.4226 211.5,51C 226.598,45.691 241.598,40.5243 256.5,35.5 Z M 452.5,53.5 C 465.5,53.5 478.5,53.5 491.5,53.5C 491.5,88.8333 491.5,124.167 491.5,159.5C 478.5,159.5 465.5,159.5 452.5,159.5C 452.5,124.167 452.5,88.8333 452.5,53.5 Z M 112.5,62.5 C 118.104,64.9648 123.771,67.4648 129.5,70C 149.822,76.1398 168.989,73.6398 187,62.5C 194.124,68.6222 200.957,75.1222 207.5,82C 194.63,85.2141 184.963,92.5474 178.5,104C 152.5,110.476 137.333,126.976 133,153.5C 131.323,185.149 145.49,205.982 175.5,216C 210.168,221.754 233.668,208.254 246,175.5C 256.446,179.26 266.946,182.927 277.5,186.5C 274.825,204.476 278.492,221.143 288.5,236.5C 281.681,243.819 274.681,250.986 267.5,258C 261.423,255.14 255.09,252.473 248.5,250C 237.243,247.152 225.909,246.819 214.5,249C 206.371,251.257 198.704,254.257 191.5,258C 158.167,224.667 124.833,191.333 91.5,158C 107.493,133.314 107.493,108.648 91.5,84C 98.7026,76.9649 105.703,69.7982 112.5,62.5 Z M 414.5,72.5 C 420.167,72.5 425.833,72.5 431.5,72.5C 431.5,101.5 431.5,130.5 431.5,159.5C 425.833,159.5 420.167,159.5 414.5,159.5C 414.5,130.5 414.5,101.5 414.5,72.5 Z M 75.5,99.5 C 84.585,113.559 84.7517,127.892 76,142.5C 68.8333,135.333 61.6667,128.167 54.5,121C 61.7026,113.965 68.7026,106.798 75.5,99.5 Z M 173.5,127.5 C 174.75,127.577 175.583,128.244 176,129.5C 179.763,143.257 187.929,153.424 200.5,160C 208.984,162.882 217.317,166.048 225.5,169.5C 216.363,192.069 200.029,200.235 176.5,194C 153.468,181.231 147.968,163.064 160,139.5C 164.099,134.892 168.599,130.892 173.5,127.5 Z M 298.5,203.5 C 303.473,206.321 308.473,209.155 313.5,212C 310.333,215.167 307.167,218.333 304,221.5C 300.65,215.952 298.817,209.952 298.5,203.5 Z M 222.5,268.5 C 232.586,267.316 241.919,269.316 250.5,274.5C 243.833,281.833 236.833,288.833 229.5,295.5C 222.167,288.833 215.167,281.833 208.5,274.5C 212.852,271.503 217.518,269.503 222.5,268.5 Z"/></g>
<g><path style="opacity:0.878" fill="#000000" d="M 345.5,122.5 C 356.654,122.479 360.82,127.813 358,138.5C 351.264,145.346 344.93,145.013 339,137.5C 336.865,130.45 339.032,125.45 345.5,122.5 Z"/></g>
<g><path style="opacity:0.952" fill="#000000" d="M 258.5,511.5 C 250.167,511.5 241.833,511.5 233.5,511.5C 223.522,509.675 213.855,506.508 204.5,502C 182.533,491.685 161.199,480.352 140.5,468C 133.237,464.448 125.571,462.614 117.5,462.5C 117.726,467.55 115.726,471.383 111.5,474C 100.839,474.5 90.1719,474.667 79.5,474.5C 79.6655,478.514 79.4988,482.514 79,486.5C 77.5,489.333 75.3333,491.5 72.5,493C 50.5,493.667 28.5,493.667 6.5,493C 3.40247,492.062 1.06914,490.228 -0.5,487.5C -0.5,442.5 -0.5,397.5 -0.5,352.5C 0.977392,350.193 2.97739,348.36 5.5,347C 37.5,346.667 69.5,346.333 101.5,346C 133.152,304.961 171.152,297.961 215.5,325C 220.854,329.356 225.854,334.023 230.5,339C 256.241,347.469 281.908,356.136 307.5,365C 319.359,370.192 327.859,378.692 333,390.5C 333.725,391.059 334.558,391.392 335.5,391.5C 361.794,384.176 388.128,377.01 414.5,370C 443.491,367.493 459.824,380.66 463.5,409.5C 460.901,429.94 449.901,443.774 430.5,451C 373.201,471.708 315.868,491.875 258.5,511.5 Z M 162.5,329.5 C 184.3,329.234 201.633,337.734 214.5,355C 242.016,365.061 269.683,374.728 297.5,384C 315.131,391.541 318.797,403.208 308.5,419C 303.141,423.073 297.141,424.406 290.5,423C 259.828,412.887 228.995,403.387 198,394.5C 189.814,395.502 186.48,400.169 188,408.5C 189.122,410.624 190.622,412.457 192.5,414C 222.833,423.667 253.167,433.333 283.5,443C 303.768,447.806 319.601,441.639 331,424.5C 332.674,420.979 333.84,417.313 334.5,413.5C 361.844,406.109 389.177,398.609 416.5,391C 434.173,389.007 442.34,396.841 441,414.5C 437.439,422.394 431.605,427.894 423.5,431C 367.958,451.069 312.291,470.736 256.5,490C 244.153,491.562 232.153,490.228 220.5,486C 195.06,473.78 170.06,460.78 145.5,447C 136.52,443.337 127.186,441.503 117.5,441.5C 117.333,414.498 117.5,387.498 118,360.5C 128.181,343.339 143.014,333.005 162.5,329.5 Z M 19.5,367.5 C 32.5,367.5 45.5,367.5 58.5,367.5C 58.5,402.5 58.5,437.5 58.5,472.5C 45.5,472.5 32.5,472.5 19.5,472.5C 19.5,437.5 19.5,402.5 19.5,367.5 Z M 79.5,367.5 C 85.1667,367.5 90.8333,367.5 96.5,367.5C 96.5,396.167 96.5,424.833 96.5,453.5C 90.8333,453.5 85.1667,453.5 79.5,453.5C 79.5,424.833 79.5,396.167 79.5,367.5 Z"/></g>
<g><path style="opacity:0.891" fill="#000000" d="M 160.5,382.5 C 169.796,383.298 173.63,388.298 172,397.5C 168.723,403.109 163.89,404.942 157.5,403C 151.367,398.591 150.2,393.091 154,386.5C 156.013,384.752 158.18,383.418 160.5,382.5 Z"/></g>
</svg>
