<?xml version="1.0" encoding="UTF-8"?>
<!DOCTYPE svg PUBLIC "-//W3C//DTD SVG 1.1//EN" "http://www.w3.org/Graphics/SVG/1.1/DTD/svg11.dtd">
<svg xmlns="http://www.w3.org/2000/svg" version="1.1" width="512px" height="512px" style="shape-rendering:geometricPrecision; text-rendering:geometricPrecision; image-rendering:optimizeQuality; fill-rule:evenodd; clip-rule:evenodd" xmlns:xlink="http://www.w3.org/1999/xlink">
<g><path style="opacity:0.971" fill="#000000" d="M 185.5,84.5 C 202.006,82.5206 211.339,89.6873 213.5,106C 213.554,110.505 212.387,114.672 210,118.5C 171.833,156.667 133.667,194.833 95.5,233C 221.167,233.333 346.833,233.667 472.5,234C 489.05,239.269 494.216,250.102 488,266.5C 484.474,272.352 479.307,275.852 472.5,277C 346.833,277.333 221.167,277.667 95.5,278C 133.333,315.833 171.167,353.667 209,391.5C 215.673,403.469 213.84,413.969 203.5,423C 194.644,427.906 185.978,427.572 177.5,422C 126.667,371.167 75.8333,320.333 25,269.5C 19,260.167 19,250.833 25,241.5C 75.8333,190.667 126.667,139.833 177.5,89C 180.099,87.205 182.766,85.705 185.5,84.5 Z"/></g>
</svg>
