<?xml version="1.0" encoding="UTF-8"?>
<!DOCTYPE svg PUBLIC "-//W3C//DTD SVG 1.1//EN" "http://www.w3.org/Graphics/SVG/1.1/DTD/svg11.dtd">
<svg xmlns="http://www.w3.org/2000/svg" version="1.1" width="512px" height="512px" style="shape-rendering:geometricPrecision; text-rendering:geometricPrecision; image-rendering:optimizeQuality; fill-rule:evenodd; clip-rule:evenodd" xmlns:xlink="http://www.w3.org/1999/xlink">
<g><path style="opacity:0.971" fill="#000000" d="M 511.5,258.5 C 511.5,297.167 511.5,335.833 511.5,374.5C 509.255,379.906 505.255,383.406 499.5,385C 482.503,385.5 465.503,385.667 448.5,385.5C 441.243,409.922 425.243,425.422 400.5,432C 362.741,437.039 337.074,421.872 323.5,386.5C 291.833,385.167 260.167,385.167 228.5,386.5C 219.306,412.769 200.973,428.269 173.5,433C 146.398,435.031 125.232,424.865 110,402.5C 106.738,397.21 104.572,391.543 103.5,385.5C 87.8298,385.667 72.1631,385.5 56.5,385C 44.6549,379.13 41.8216,370.297 48,358.5C 50.4411,356.031 53.2744,354.198 56.5,353C 71.8333,352.667 87.1667,352.333 102.5,352C 114.173,317.681 138.173,301.681 174.5,304C 202.781,308.784 220.781,324.951 228.5,352.5C 260.167,352.5 291.833,352.5 323.5,352.5C 329.247,330.25 342.914,315.084 364.5,307C 396.84,298.112 422.674,307.278 442,334.5C 445.088,340.104 447.588,345.938 449.5,352C 459.161,352.5 468.828,352.666 478.5,352.5C 478.667,324.831 478.5,297.165 478,269.5C 470.864,259.397 463.364,249.564 455.5,240C 411.833,239.667 368.167,239.333 324.5,239C 319.243,236.744 315.743,232.91 314,227.5C 313.5,188.501 313.333,149.501 313.5,110.5C 227.833,110.667 142.166,110.5 56.5,110C 46.4113,105.653 42.9113,98.153 46,87.5C 48.327,82.5768 52.1603,79.4101 57.5,78C 149.833,77.3333 242.167,77.3333 334.5,78C 339.91,79.7425 343.744,83.2425 346,88.5C 346.5,95.4921 346.666,102.492 346.5,109.5C 370.169,109.333 393.836,109.5 417.5,110C 423.136,110.73 427.303,113.564 430,118.5C 446.078,150.989 462.411,183.322 479,215.5C 490.081,229.734 500.914,244.067 511.5,258.5 Z M 346.5,143.5 C 366.178,143.167 385.845,143.5 405.5,144.5C 415.705,165.078 426.039,185.578 436.5,206C 406.502,206.5 376.502,206.667 346.5,206.5C 346.5,185.5 346.5,164.5 346.5,143.5 Z M 162.5,336.5 C 183.092,337.426 194.758,348.092 197.5,368.5C 195.183,387.484 184.516,398.151 165.5,400.5C 146.495,398.162 135.829,387.495 133.5,368.5C 135.554,350.786 145.22,340.119 162.5,336.5 Z M 383.5,336.5 C 404.275,337.278 415.608,347.945 417.5,368.5C 416.03,387.638 405.696,398.305 386.5,400.5C 360.903,396.289 351.07,381.622 357,356.5C 362.308,345.009 371.142,338.342 383.5,336.5 Z"/></g>
<g><path style="opacity:0.97" fill="#000000" d="M 38.5,143.5 C 86.8345,143.333 135.168,143.5 183.5,144C 196.077,149.481 199.244,158.315 193,170.5C 191.062,173.106 188.562,174.939 185.5,176C 135.833,176.667 86.1667,176.667 36.5,176C 25.089,169.76 22.589,160.927 29,149.5C 31.8426,146.837 35.0093,144.837 38.5,143.5 Z"/></g>
<g><path style="opacity:0.971" fill="#000000" d="M -0.5,229.5 C -0.5,225.833 -0.5,222.167 -0.5,218.5C 1.31781,213.184 4.98447,209.684 10.5,208C 59.8333,207.333 109.167,207.333 158.5,208C 165.87,210.727 169.537,216.061 169.5,224C 169.325,232.178 165.325,237.512 157.5,240C 108.833,240.667 60.1667,240.667 11.5,240C 6.0678,238.064 2.0678,234.564 -0.5,229.5 Z"/></g>
<g><path style="opacity:0.967" fill="#000000" d="M 38.5,270.5 C 65.8354,270.333 93.1687,270.5 120.5,271C 130.469,274.765 134.302,281.932 132,292.5C 130.167,297.667 126.667,301.167 121.5,303C 93.1667,303.667 64.8333,303.667 36.5,303C 25.0731,296.717 22.5731,287.884 29,276.5C 31.8426,273.837 35.0093,271.837 38.5,270.5 Z"/></g>
</svg>
