<?xml version="1.0" encoding="UTF-8"?>
<!DOCTYPE svg PUBLIC "-//W3C//DTD SVG 1.1//EN" "http://www.w3.org/Graphics/SVG/1.1/DTD/svg11.dtd">
<svg xmlns="http://www.w3.org/2000/svg" version="1.1" width="512px" height="512px" style="shape-rendering:geometricPrecision; text-rendering:geometricPrecision; image-rendering:optimizeQuality; fill-rule:evenodd; clip-rule:evenodd" xmlns:xlink="http://www.w3.org/1999/xlink">
<g><path style="opacity:0.967" fill="#000000" d="M 511.5,132.5 C 511.5,136.833 511.5,141.167 511.5,145.5C 509.877,149.4 507.711,153.067 505,156.5C 427.5,234 350,311.5 272.5,389C 261.167,397.667 249.833,397.667 238.5,389C 161,311.5 83.5,234 6,156.5C 3.28937,153.067 1.1227,149.4 -0.5,145.5C -0.5,141.167 -0.5,136.833 -0.5,132.5C 8.27286,114.886 21.2729,111.052 38.5,121C 110.68,193.347 183.014,265.514 255.5,337.5C 327.986,265.514 400.32,193.347 472.5,121C 489.727,111.052 502.727,114.886 511.5,132.5 Z"/></g>
</svg>
