<?xml version="1.0" encoding="UTF-8"?>
<!DOCTYPE svg PUBLIC "-//W3C//DTD SVG 1.1//EN" "http://www.w3.org/Graphics/SVG/1.1/DTD/svg11.dtd">
<svg xmlns="http://www.w3.org/2000/svg" version="1.1" width="512px" height="512px" style="shape-rendering:geometricPrecision; text-rendering:geometricPrecision; image-rendering:optimizeQuality; fill-rule:evenodd; clip-rule:evenodd" xmlns:xlink="http://www.w3.org/1999/xlink">
<g><path style="opacity:0.997" fill="#fefffe" d="M 511.5,87.5 C 511.5,92.8333 511.5,98.1667 511.5,103.5C 508.015,115.818 500.015,123.651 487.5,127C 332.833,127.667 178.167,127.667 23.5,127C 10.9853,123.651 2.98533,115.818 -0.5,103.5C -0.5,98.1667 -0.5,92.8333 -0.5,87.5C 2.98533,75.1824 10.9853,67.349 23.5,64C 178.167,63.3333 332.833,63.3333 487.5,64C 500.015,67.349 508.015,75.1824 511.5,87.5 Z"/></g>
<g><path style="opacity:0.997" fill="#fefffe" d="M 511.5,247.5 C 511.5,252.833 511.5,258.167 511.5,263.5C 508.015,275.818 500.015,283.651 487.5,287C 332.833,287.667 178.167,287.667 23.5,287C 10.9853,283.651 2.98533,275.818 -0.5,263.5C -0.5,258.167 -0.5,252.833 -0.5,247.5C 2.98533,235.182 10.9853,227.349 23.5,224C 178.167,223.333 332.833,223.333 487.5,224C 500.015,227.349 508.015,235.182 511.5,247.5 Z"/></g>
<g><path style="opacity:0.997" fill="#fefffe" d="M 511.5,407.5 C 511.5,412.833 511.5,418.167 511.5,423.5C 508.015,435.818 500.015,443.651 487.5,447C 332.833,447.667 178.167,447.667 23.5,447C 10.9853,443.651 2.98533,435.818 -0.5,423.5C -0.5,418.167 -0.5,412.833 -0.5,407.5C 2.98533,395.182 10.9853,387.349 23.5,384C 178.167,383.333 332.833,383.333 487.5,384C 500.015,387.349 508.015,395.182 511.5,407.5 Z"/></g>
</svg>
