<?xml version="1.0" encoding="UTF-8"?>
<!DOCTYPE svg PUBLIC "-//W3C//DTD SVG 1.1//EN" "http://www.w3.org/Graphics/SVG/1.1/DTD/svg11.dtd">
<svg xmlns="http://www.w3.org/2000/svg" version="1.1" width="512px" height="512px" style="shape-rendering:geometricPrecision; text-rendering:geometricPrecision; image-rendering:optimizeQuality; fill-rule:evenodd; clip-rule:evenodd" xmlns:xlink="http://www.w3.org/1999/xlink">
<g><path style="opacity:0.973" fill="#000000" d="M 511.5,194.5 C 511.5,198.5 511.5,202.5 511.5,206.5C 510.59,208.019 509.757,209.685 509,211.5C 464.833,255.667 420.667,299.833 376.5,344C 364.518,350.445 355.018,347.945 348,336.5C 346.535,315.9 346.035,295.234 346.5,274.5C 278.499,274.667 210.499,274.5 142.5,274C 136.34,273.171 131.84,270.004 129,264.5C 127.727,252.237 127.06,239.903 127,227.5C 99.5,255 72,282.5 44.5,310C 72,337.5 99.5,365 127,392.5C 127.333,381.5 127.667,370.5 128,359.5C 130.238,352.93 134.738,348.763 141.5,347C 193.167,346.333 244.833,346.333 296.5,347C 309.277,351.63 313.443,360.463 309,373.5C 306.448,377.719 302.948,380.886 298.5,383C 253.835,383.5 209.168,383.667 164.5,383.5C 164.965,404.234 164.465,424.9 163,445.5C 155.68,457.633 145.847,460.133 133.5,453C 90,409.5 46.5,366 3,322.5C 2.05898,320.273 0.892318,318.273 -0.5,316.5C -0.5,312.5 -0.5,308.5 -0.5,304.5C 0.409824,302.981 1.24316,301.315 2,299.5C 46.1667,255.333 90.3333,211.167 134.5,167C 146.482,160.555 155.982,163.055 163,174.5C 164.465,195.1 164.965,215.766 164.5,236.5C 232.501,236.333 300.501,236.5 368.5,237C 374.66,237.829 379.16,240.996 382,246.5C 383.273,258.763 383.94,271.097 384,283.5C 411.5,256 439,228.5 466.5,201C 439,173.5 411.5,146 384,118.5C 383.667,129.5 383.333,140.5 383,151.5C 380.762,158.07 376.262,162.237 369.5,164C 317.833,164.667 266.167,164.667 214.5,164C 201.723,159.37 197.557,150.537 202,137.5C 204.552,133.281 208.052,130.114 212.5,128C 257.165,127.5 301.832,127.333 346.5,127.5C 346.046,106.446 346.546,85.4464 348,64.5C 354.494,54.4005 363.327,51.5672 374.5,56C 419.306,99.8056 463.806,143.972 508,188.5C 508.941,190.727 510.108,192.727 511.5,194.5 Z"/></g>
</svg>
